# Blender v2.76 (sub 0) OBJ File: ''
# www.blender.org
mtllib level.mtl
o Cube_Cube.003_Cube_Cube.004
v -46.023842 30.545012 51.358810
v -56.023842 30.545012 51.358810
v -56.023842 0.999998 51.358810
v -46.023842 0.999998 51.358810
v -56.023846 30.545015 -48.641190
v -56.023849 1.000002 -48.641190
v -46.023846 30.545015 -48.641190
v -46.023849 1.000002 -48.641190
vn 0.000000 0.000000 1.000000
vn -1.000000 0.000000 0.000000
vn 0.000000 0.000000 -1.000000
vn 1.000000 -0.000000 -0.000000
vn 0.000000 -1.000000 -0.000000
vn 0.000000 1.000000 0.000000
usemtl None.004
s 1
f 1//1 2//1 3//1 4//1
f 2//2 5//2 6//2 3//2
f 5//3 7//3 8//3 6//3
f 7//4 1//4 4//4 8//4
f 4//5 3//5 6//5 8//5
f 7//6 5//6 2//6 1//6
o Cube_Cube.002_Cube_Cube.003
v 54.884045 29.545013 1.175305
v 44.884045 29.545013 1.175305
v 44.884045 -0.000000 1.175304
v 54.884045 -0.000000 1.175304
v 44.884041 29.545017 -98.824692
v 44.884037 0.000004 -98.824692
v 54.884041 29.545017 -98.824692
v 54.884037 0.000004 -98.824692
vn 0.000000 -0.000000 1.000000
vn -1.000000 0.000000 0.000000
vn 0.000000 0.000000 -1.000000
vn 1.000000 -0.000000 -0.000000
vn 0.000000 -1.000000 -0.000000
vn 0.000000 1.000000 0.000000
usemtl None.003
s 1
f 9//7 10//7 11//7 12//7
f 10//8 13//8 14//8 11//8
f 13//9 15//9 16//9 14//9
f 15//10 9//10 12//10 16//10
f 12//11 11//11 14//11 16//11
f 15//12 13//12 10//12 9//12
o Plane
v -100.000000 -0.000008 100.000000
v 100.000000 -0.000008 100.000000
v 100.000000 0.000008 -100.000000
v -100.000000 0.000008 -100.000000
vn 0.000000 1.000000 0.000000
usemtl None
s 1
f 17//13 18//13 19//13 20//13
o Cube_Cube.001
v 7.108013 30.545012 48.855854
v -2.891987 30.545012 48.855854
v -2.891988 0.999998 48.855854
v 7.108012 0.999998 48.855854
v -2.891992 30.545015 -51.144146
v -2.891993 1.000002 -51.144146
v 7.108008 30.545015 -51.144146
v 7.108007 1.000002 -51.144146
vn 0.000000 0.000000 1.000000
vn -1.000000 0.000000 0.000000
vn 0.000000 0.000000 -1.000000
vn 1.000000 -0.000000 -0.000000
vn 0.000000 -1.000000 -0.000000
vn 0.000000 1.000000 0.000000
usemtl None
s 1
f 21//14 22//14 23//14 24//14
f 22//15 25//15 26//15 23//15
f 25//16 27//16 28//16 26//16
f 27//17 21//17 24//17 28//17
f 24//18 23//18 26//18 28//18
f 27//19 25//19 22//19 21//19
o Cube_Cube.000_Cube_Cube.002
v -50.000000 30.545013 5.000002
v -50.000000 30.545013 -4.999998
v -50.000000 1.000000 -5.000000
v -50.000000 1.000000 5.000000
v 50.000000 30.545013 -4.999998
v 50.000000 1.000000 -5.000000
v 50.000000 30.545013 5.000002
v 50.000000 1.000000 5.000000
vn -1.000000 0.000000 0.000000
vn 0.000000 0.000000 -1.000000
vn 1.000000 0.000000 0.000000
vn 0.000000 -0.000000 1.000000
vn 0.000000 -1.000000 -0.000000
vn 0.000000 1.000000 0.000000
usemtl None.002
s 1
f 29//20 30//20 31//20 32//20
f 30//21 33//21 34//21 31//21
f 33//22 35//22 36//22 34//22
f 35//23 29//23 32//23 36//23
f 32//24 31//24 34//24 36//24
f 35//25 33//25 30//25 29//25
o Cube_Cube.005_Cube_Cube.006
v 104.753494 100.969620 99.428108
v 94.753494 100.969620 99.428108
v 94.753494 -0.295444 99.428101
v 104.753494 -0.295444 99.428101
v 94.753510 100.969635 -100.879158
v 94.753510 -0.295436 -100.879166
v 104.753510 100.969635 -100.879158
v 104.753510 -0.295436 -100.879166
vn 0.000000 -0.000000 1.000000
vn -1.000000 0.000000 -0.000000
vn 0.000000 0.000000 -1.000000
vn 1.000000 0.000000 0.000000
vn 0.000000 -1.000000 -0.000000
vn 0.000000 1.000000 0.000000
usemtl None.006
s 1
f 37//26 38//26 39//26 40//26
f 38//27 41//27 42//27 39//27
f 41//28 43//28 44//28 42//28
f 43//29 37//29 40//29 44//29
f 40//30 39//30 42//30 44//30
f 43//31 41//31 38//31 37//31
o Cube_Cube.005_Cube_Cube.000
v -92.927528 100.969620 99.428108
v -102.927528 100.969620 99.428108
v -102.927528 -0.295444 99.428101
v -92.927528 -0.295444 99.428101
v -102.927513 100.969635 -100.879158
v -102.927513 -0.295436 -100.879166
v -92.927513 100.969635 -100.879158
v -92.927513 -0.295436 -100.879166
vn 0.000000 -0.000000 1.000000
vn -1.000000 0.000000 -0.000000
vn 0.000000 0.000000 -1.000000
vn 1.000000 0.000000 0.000000
vn 0.000000 -1.000000 -0.000000
vn 0.000000 1.000000 0.000000
usemtl None.001
s 1
f 45//32 46//32 47//32 48//32
f 46//33 49//33 50//33 47//33
f 49//34 51//34 52//34 50//34
f 51//35 45//35 48//35 52//35
f 48//36 47//36 50//36 52//36
f 51//37 49//37 46//37 45//37
o Cube_Cube.005_Cube_Cube.001
v 105.475441 100.969620 -100.285675
v 105.475441 100.969620 -90.285675
v 105.475433 -0.295444 -90.285675
v 105.475433 -0.295444 -100.285675
v -94.831825 100.969635 -90.285675
v -94.831833 -0.295436 -90.285675
v -94.831825 100.969635 -100.285675
v -94.831833 -0.295436 -100.285675
vn 1.000000 0.000000 0.000000
vn -0.000000 0.000000 1.000000
vn -1.000000 0.000000 0.000000
vn -0.000000 0.000000 -1.000000
vn -0.000000 -1.000000 0.000000
vn 0.000000 1.000000 0.000000
usemtl None.009
s 1
f 53//38 54//38 55//38 56//38
f 54//39 57//39 58//39 55//39
f 57//40 59//40 60//40 58//40
f 59//41 53//41 56//41 60//41
f 56//42 55//42 58//42 60//42
f 59//43 57//43 54//43 53//43
o Cube_Cube.005_Cube_Cube.002
v 105.475441 100.969620 89.663452
v 105.475441 100.969620 99.663452
v 105.475433 -0.295444 99.663452
v 105.475433 -0.295444 89.663452
v -94.831825 100.969635 99.663452
v -94.831833 -0.295436 99.663452
v -94.831825 100.969635 89.663452
v -94.831833 -0.295436 89.663452
vn 1.000000 0.000000 0.000000
vn -0.000000 0.000000 1.000000
vn -1.000000 0.000000 0.000000
vn -0.000000 0.000000 -1.000000
vn -0.000000 -1.000000 0.000000
vn 0.000000 1.000000 0.000000
usemtl None.010
s 1
f 61//44 62//44 63//44 64//44
f 62//45 65//45 66//45 63//45
f 65//46 67//46 68//46 66//46
f 67//47 61//47 64//47 68//47
f 64//48 63//48 66//48 68//48
f 67//49 65//49 62//49 61//49
